<?xml version="1.0" encoding="UTF-8" standalone="no"?>
<svg
   xmlns:dc="http://purl.org/dc/elements/1.1/"
   xmlns:cc="http://creativecommons.org/ns#"
   xmlns:rdf="http://www.w3.org/1999/02/22-rdf-syntax-ns#"
   xmlns:svg="http://www.w3.org/2000/svg"
   xmlns="http://www.w3.org/2000/svg"
   xmlns:sodipodi="http://sodipodi.sourceforge.net/DTD/sodipodi-0.dtd"
   xmlns:inkscape="http://www.inkscape.org/namespaces/inkscape"
   width="16"
   height="16"
   fill="currentColor"
   class="bi bi-clipboard"
   viewBox="0 0 16 16"
   version="1.1"
   id="svg38"
   sodipodi:docname="sb_text_paste.svg"
   inkscape:version="1.0.2-2 (e86c870879, 2021-01-15)">
  <metadata
     id="metadata44">
    <rdf:RDF>
      <cc:Work
         rdf:about="">
        <dc:format>image/svg+xml</dc:format>
        <dc:type
           rdf:resource="http://purl.org/dc/dcmitype/StillImage" />
        <dc:title></dc:title>
      </cc:Work>
    </rdf:RDF>
  </metadata>
  <defs
     id="defs42" />
  <sodipodi:namedview
     pagecolor="#ffffff"
     bordercolor="#666666"
     borderopacity="1"
     objecttolerance="10"
     gridtolerance="10"
     guidetolerance="10"
     inkscape:pageopacity="0"
     inkscape:pageshadow="2"
     inkscape:window-width="2100"
     inkscape:window-height="1391"
     id="namedview40"
     showgrid="true"
     inkscape:zoom="63"
     inkscape:cx="4.9444444"
     inkscape:cy="6.6227228"
     inkscape:window-x="0"
     inkscape:window-y="0"
     inkscape:window-maximized="0"
     inkscape:current-layer="svg38">
    <inkscape:grid
       type="xygrid"
       id="grid920" />
  </sodipodi:namedview>
  <path
     d="M4 1.5H3a2 2 0 0 0-2 2V14a2 2 0 0 0 2 2h10a2 2 0 0 0 2-2V3.5a2 2 0 0 0-2-2h-1v1h1a1 1 0 0 1 1 1V14a1 1 0 0 1-1 1H3a1 1 0 0 1-1-1V3.5a1 1 0 0 1 1-1h1v-1z"
     id="path34" />
  <path
     d="M9.5 1a.5.5 0 0 1 .5.5v1a.5.5 0 0 1-.5.5h-3a.5.5 0 0 1-.5-.5v-1a.5.5 0 0 1 .5-.5h3zm-3-1A1.5 1.5 0 0 0 5 1.5v1A1.5 1.5 0 0 0 6.5 4h3A1.5 1.5 0 0 0 11 2.5v-1A1.5 1.5 0 0 0 9.5 0h-3z"
     id="path36" />
  <path
     style="fill:#b33771;stroke-width:0.015873;fill-opacity:1"
     d="M 2.8451095,15.983595 C 2.5670681,15.96049 2.3406254,15.894448 2.0793651,15.760264 1.5362013,15.481293 1.1545284,14.958936 1.0362908,14.332713 1.0094146,14.190368 1.0079365,13.899138 1.0079365,8.7460317 c 0,-5.0608169 0.00187,-5.4463801 0.027117,-5.579365 C 1.1598416,2.5092561 1.564421,1.9831908 2.1651887,1.6971778 2.5060433,1.5349039 2.6852808,1.5081533 3.4325397,1.5080301 L 4,1.5079365 V 2 2.4920635 L 3.4484127,2.492339 C 2.8205257,2.4926528 2.7512633,2.5010915 2.547619,2.602088 2.3236281,2.7131752 2.1558953,2.8971902 2.057462,3.1398257 L 2.007936,3.2619048 2.003276,8.6904762 c -0.00338,3.9384888 1.952e-4,5.4547128 0.013019,5.5238098 0.05095,0.274527 0.2763464,0.561612 0.5392566,0.686842 0.074206,0.03535 0.1727722,0.07205 0.2190352,0.08157 C 2.8342868,14.994977 4.3512279,15 8,15 c 3.648772,0 5.165713,-0.005 5.225409,-0.0173 0.27039,-0.05562 0.55255,-0.280274 0.676035,-0.538253 0.03552,-0.07421 0.07254,-0.177777 0.08226,-0.230158 0.01282,-0.0691 0.0164,-1.585321 0.01302,-5.5238098 l -0.0047,-5.4285714 -0.04952,-0.1220791 C 13.844105,2.8971902 13.676372,2.7131752 13.452381,2.602088 13.248737,2.5010915 13.179474,2.4926528 12.551587,2.4923391 L 12,2.4920635 V 2 1.5079365 l 0.56746,9.37e-5 c 0.766474,1.263e-4 0.93091,0.026191 1.299493,0.2059831 0.580554,0.2831889 0.975088,0.805161 1.097994,1.4526534 0.02524,0.1329849 0.02712,0.5185481 0.02712,5.579365 0,5.1531063 -0.0015,5.4443363 -0.02835,5.5866813 -0.158402,0.838949 -0.770494,1.456817 -1.614818,1.630056 -0.126097,0.02587 -0.457661,0.02779 -5.2457164,0.03033 -2.8111111,0.0015 -5.1772405,-0.0028 -5.2580651,-0.0095 z"
     id="path48" />
  <path
     style="fill:#b33771;fill-opacity:1;stroke-width:0.015873"
     d="M 6.3615505,3.9830475 C 5.739005,3.9228179 5.2256418,3.4845456 5.0520367,2.8650794 5.0174998,2.7418432 5.0164495,2.7163102 5.0164495,2 c 0,-0.7163101 0.00105,-0.7418432 0.035587,-0.8650794 C 5.2036126,0.59406038 5.5999222,0.20110784 6.1448921,0.05132261 L 6.3015873,0.00825487 7.9920635,0.00809569 9.6825397,0.00793651 9.823116,0.04375391 C 10.386481,0.18729348 10.792872,0.58151619 10.947963,1.1349206 10.9825,1.2581568 10.98355,1.2836899 10.98355,2 c 0,0.7163102 -10e-4,0.7418432 -0.03559,0.8650794 C 10.855526,3.1949178 10.6593,3.48882 10.402143,3.6825933 10.168537,3.8586208 9.9187205,3.9546117 9.618164,3.983834 9.4297333,4.0021546 6.5518613,4.0014595 6.3615505,3.9830483 Z M 9.6802756,2.9745063 C 9.7821029,2.9398103 9.9147175,2.8156859 9.9621937,2.7106367 9.9999702,2.6270502 10,2.626489 10,2 10,1.373511 9.9999683,1.3729498 9.9621937,1.2893633 9.9147175,1.1843142 9.7821029,1.0601897 9.6802756,1.0254936 9.613513,1.0027453 9.4325695,1 8,1 6.5674305,1 6.386487,1.0027453 6.3197244,1.0254936 6.2178971,1.0601897 6.0852826,1.1843142 6.0378063,1.2893633 6.0000299,1.3729498 6,1.373511 6,2 c 0,0.626489 3.02e-5,0.6270502 0.037806,0.7106367 0.045761,0.1012546 0.1795595,0.228965 0.2754211,0.2628896 0.058605,0.02074 0.2848394,0.024136 1.6799767,0.025221 1.4409467,0.00112 1.6202016,-0.00146 1.6870718,-0.024241 z"
     id="path873" />
  <path
     style="fill:#000000;fill-opacity:1;stroke-width:0.015873"
     d="M 8.1746028,9 V 8.753968 h 2.4365082 2.436508 V 9 9.246032 H 10.611111 8.1746028 Z"
     id="path914" />
  <path
     style="fill:#000000;fill-opacity:1;stroke-width:0.015873"
     d="M 8.1269838,10.761905 V 10.523809 H 10.563492 13 V 10.761905 11 H 10.563492 8.1269838 Z"
     id="path916" />
  <path
     style="fill:#000000;fill-opacity:1;stroke-width:0.015873"
     d="M 8.1269841,12.507937 V 12.269841 H 10.563492 13 v 0.238096 0.238095 H 10.563492 8.1269841 Z"
     id="path918" />
</svg>
